<svg width="45" height="45" viewBox="0 0 45 45" fill="none" xmlns="http://www.w3.org/2000/svg">
<path d="M13.1426 11.9241C12.6217 12.2821 12.0684 12.5507 11.4824 12.7297C10.8965 12.9088 10.2943 12.9983 9.67578 12.9983C8.86198 12.9983 8.06445 12.8437 7.2832 12.5344C6.50195 12.2252 5.81836 11.7776 5.23242 11.1917C4.64648 10.6057 4.19889 9.92212 3.88965 9.14087C3.5804 8.35962 3.42578 7.56209 3.42578 6.74829C3.42578 6.1298 3.5153 5.52759 3.69434 4.94165C3.87337 4.35571 4.14193 3.80233 4.5 3.28149C4.82552 2.76066 5.22428 2.30493 5.69629 1.91431C6.16829 1.52368 6.69727 1.21444 7.2832 0.986572C7.86914 0.726154 8.46322 0.571533 9.06543 0.522705C9.66764 0.473877 10.278 0.498291 10.8965 0.595947C11.515 0.726154 12.0928 0.937744 12.6299 1.23071C13.167 1.52368 13.6634 1.88176 14.1191 2.30493C14.5423 2.76066 14.9004 3.25708 15.1934 3.79419C15.4863 4.3313 15.6979 4.9091 15.8281 5.52759C15.9258 6.14608 15.9502 6.75643 15.9014 7.35864C15.8525 7.96086 15.6979 8.55493 15.4375 9.14087C15.2096 9.72681 14.9004 10.2558 14.5098 10.7278C14.1191 11.1998 13.6634 11.5986 13.1426 11.9241ZM11.4336 4.1604C11.1732 3.99764 10.8883 3.86743 10.5791 3.76978C10.2699 3.67212 9.96875 3.62329 9.67578 3.62329C9.2526 3.62329 8.85384 3.70467 8.47949 3.86743C8.10514 4.03019 7.77148 4.25806 7.47852 4.55103C7.18555 4.84399 6.95768 5.17765 6.79492 5.552C6.63216 5.92635 6.55078 6.32512 6.55078 6.74829C6.55078 7.04126 6.59961 7.34237 6.69727 7.65161C6.79492 7.96086 6.92513 8.24569 7.08789 8.5061C7.25065 8.73397 7.4541 8.94556 7.69824 9.14087C7.94238 9.33618 8.21094 9.49894 8.50391 9.62915C8.76432 9.75936 9.04915 9.84074 9.3584 9.87329C9.66764 9.90584 9.96875 9.88957 10.2617 9.82446C10.5872 9.75936 10.8883 9.65356 11.165 9.50708C11.4417 9.3606 11.6777 9.17342 11.873 8.94556C12.1009 8.75024 12.2881 8.51424 12.4346 8.23755C12.5811 7.96086 12.6868 7.65975 12.752 7.33423C12.8171 7.04126 12.8333 6.74015 12.8008 6.43091C12.7682 6.12166 12.6868 5.83683 12.5566 5.57642C12.4264 5.28345 12.2637 5.01489 12.0684 4.77075C11.873 4.52661 11.6615 4.32316 11.4336 4.1604ZM34.6758 16.1233V14.5608C34.6758 14.04 34.627 13.5273 34.5293 13.0227C34.4316 12.5181 34.2852 12.038 34.0898 11.5823C33.8945 11.094 33.6504 10.6383 33.3574 10.2151C33.0645 9.79191 32.7389 9.40129 32.3809 9.04321C32.0228 8.68514 31.6322 8.35962 31.209 8.06665C30.7858 7.77368 30.3301 7.52954 29.8418 7.33423C29.3861 7.13892 28.9059 6.99243 28.4014 6.89478C27.8968 6.79712 27.3841 6.74829 26.8633 6.74829H22.1758V3.62329H26.8633C28.3281 3.62329 29.7279 3.89998 31.0625 4.45337C32.3971 5.00676 33.569 5.80428 34.5781 6.84595C35.6198 7.85506 36.4173 9.02694 36.9707 10.3616C37.5241 11.6962 37.8008 13.0959 37.8008 14.5608V16.1233H34.6758ZM6.55078 28.6233V30.1858C6.55078 31.2275 6.74609 32.2284 7.13672 33.1887C7.52734 34.149 8.09701 34.9872 8.8457 35.7034C9.56185 36.4521 10.4001 37.0217 11.3604 37.4124C12.3206 37.803 13.3216 37.9983 14.3633 37.9983H19.0508V41.1233H14.3633C12.8984 41.1233 11.4987 40.8466 10.1641 40.2932C8.82943 39.7398 7.65755 38.9423 6.64844 37.9006C5.60677 36.8915 4.80924 35.7196 4.25586 34.385C3.70247 33.0504 3.42578 31.6506 3.42578 30.1858V28.6233H6.55078ZM14.3633 14.5608H4.98828C4.36979 14.5608 3.77572 14.6829 3.20605 14.927C2.63639 15.1711 2.1237 15.5048 1.66797 15.928C1.24479 16.3837 0.911133 16.8964 0.666992 17.4661C0.422852 18.0357 0.300781 18.6298 0.300781 19.2483V22.3733H3.42578V19.2483C3.42578 19.053 3.46647 18.8577 3.54785 18.6624C3.62923 18.467 3.73503 18.288 3.86523 18.1252C4.02799 17.995 4.20703 17.8892 4.40234 17.8079C4.59766 17.7265 4.79297 17.6858 4.98828 17.6858H14.3633C14.5586 17.6858 14.7539 17.7265 14.9492 17.8079C15.1445 17.8892 15.3236 17.995 15.4863 18.1252C15.6165 18.288 15.7223 18.467 15.8037 18.6624C15.8851 18.8577 15.9258 19.053 15.9258 19.2483V22.3733H19.0508V19.2483C19.0508 18.6298 18.9287 18.0357 18.6846 17.4661C18.4404 16.8964 18.1068 16.3837 17.6836 15.928C17.2279 15.5048 16.7152 15.1711 16.1455 14.927C15.5758 14.6829 14.9818 14.5608 14.3633 14.5608ZM29.9883 36.4358C29.3698 36.4358 28.7757 36.5579 28.2061 36.802C27.6364 37.0461 27.1237 37.3798 26.668 37.803C26.2448 38.2587 25.9111 38.7714 25.667 39.3411C25.4229 39.9107 25.3008 40.5048 25.3008 41.1233V44.2483H28.4258V41.1233C28.4258 40.928 28.4665 40.7327 28.5479 40.5374C28.6292 40.342 28.735 40.163 28.8652 40.0002C29.028 39.87 29.207 39.7642 29.4023 39.6829C29.5977 39.6015 29.793 39.5608 29.9883 39.5608H39.3633C39.5586 39.5608 39.7539 39.6015 39.9492 39.6829C40.1445 39.7642 40.3236 39.87 40.4863 40.0002C40.6165 40.163 40.7223 40.342 40.8037 40.5374C40.8851 40.7327 40.9258 40.928 40.9258 41.1233V44.2483H44.0508V41.1233C44.0508 40.5048 43.9287 39.9107 43.6846 39.3411C43.4404 38.7714 43.1068 38.2587 42.6836 37.803C42.2279 37.3798 41.7152 37.0461 41.1455 36.802C40.5758 36.5579 39.9818 36.4358 39.3633 36.4358H29.9883ZM29.5 32.0901C29.1419 31.5693 28.8734 31.0159 28.6943 30.4299C28.5153 29.844 28.4258 29.2418 28.4258 28.6233C28.4258 27.8095 28.5804 27.012 28.8896 26.2307C29.1989 25.4495 29.6465 24.7659 30.2324 24.1799C30.8184 23.594 31.502 23.1464 32.2832 22.8372C33.0645 22.5279 33.862 22.3733 34.6758 22.3733C35.2943 22.3733 35.8965 22.4628 36.4824 22.6418C37.0684 22.8209 37.6217 23.0894 38.1426 23.4475C38.6634 23.773 39.1191 24.1718 39.5098 24.6438C39.9004 25.1158 40.2096 25.6448 40.4375 26.2307C40.6979 26.8167 40.8525 27.4107 40.9014 28.0129C40.9502 28.6152 40.9258 29.2255 40.8281 29.844C40.6979 30.4625 40.4863 31.0403 40.1934 31.5774C39.9004 32.1145 39.5423 32.6109 39.1191 33.0667C38.6634 33.4898 38.167 33.8479 37.6299 34.1409C37.0928 34.4338 36.515 34.6454 35.8965 34.7756C35.278 34.8733 34.6676 34.8977 34.0654 34.8489C33.4632 34.8 32.8691 34.6454 32.2832 34.385C31.6973 34.1571 31.1683 33.8479 30.6963 33.4573C30.2243 33.0667 29.8255 32.6109 29.5 32.0901ZM37.2637 30.3811C37.4264 30.1207 37.5566 29.8359 37.6543 29.5266C37.752 29.2174 37.8008 28.9163 37.8008 28.6233C37.8008 28.2001 37.7194 27.8014 37.5566 27.427C37.3939 27.0527 37.166 26.719 36.873 26.426C36.5801 26.1331 36.2464 25.9052 35.8721 25.7424C35.4977 25.5797 35.099 25.4983 34.6758 25.4983C34.3828 25.4983 34.0817 25.5471 33.7725 25.6448C33.4632 25.7424 33.1784 25.8726 32.918 26.0354C32.6901 26.1982 32.4785 26.4016 32.2832 26.6458C32.0879 26.8899 31.9251 27.1584 31.7949 27.4514C31.6647 27.7118 31.5833 27.9967 31.5508 28.3059C31.5182 28.6152 31.5345 28.9163 31.5996 29.2092C31.6647 29.5347 31.7705 29.8359 31.917 30.1125C32.0635 30.3892 32.2507 30.6252 32.4785 30.8206C32.6738 31.0484 32.9098 31.2356 33.1865 31.3821C33.4632 31.5286 33.7643 31.6344 34.0898 31.6995C34.3828 31.7646 34.6839 31.7808 34.9932 31.7483C35.3024 31.7157 35.5872 31.6344 35.8477 31.5042C36.1406 31.3739 36.4092 31.2112 36.6533 31.0159C36.8975 30.8206 37.1009 30.609 37.2637 30.3811Z" fill="url(#paint0_linear_1_253)"/>
<defs>
<linearGradient id="paint0_linear_1_253" x1="0.300782" y1="0.49829" x2="51.4534" y2="32.366" gradientUnits="userSpaceOnUse">
<stop stop-color="#2600FC"/>
<stop offset="1" stop-color="#FF00EA"/>
</linearGradient>
</defs>
</svg>
