<svg width="40" height="48" viewBox="0 0 40 48" fill="none" xmlns="http://www.w3.org/2000/svg">
<path d="M27.3633 5.18579H32.0508C32.474 5.18579 32.8727 5.26717 33.2471 5.42993C33.6214 5.59269 33.9551 5.82056 34.248 6.11353C34.541 6.40649 34.7689 6.74015 34.9316 7.1145C35.0944 7.48885 35.1758 7.88762 35.1758 8.31079V16.1233H32.0508V8.31079H27.3633V12.9983H8.61328V8.31079H3.92578V41.1233H17.9883V44.2483H3.92578C3.5026 44.2483 3.10384 44.1669 2.72949 44.0042C2.35514 43.8414 2.02148 43.6135 1.72852 43.3206C1.43555 43.0276 1.20768 42.6939 1.04492 42.3196C0.882161 41.9452 0.800781 41.5465 0.800781 41.1233V8.31079C0.800781 7.88762 0.882161 7.48885 1.04492 7.1145C1.20768 6.74015 1.43555 6.40649 1.72852 6.11353C2.02148 5.82056 2.35514 5.59269 2.72949 5.42993C3.10384 5.26717 3.5026 5.18579 3.92578 5.18579H8.61328V3.62329C8.61328 3.20012 8.69466 2.80135 8.85742 2.427C9.02018 2.05265 9.24805 1.71899 9.54102 1.42603C9.83398 1.13306 10.1676 0.905193 10.542 0.742432C10.9163 0.57967 11.3151 0.498291 11.7383 0.498291H24.2383C24.6615 0.498291 25.0602 0.57967 25.4346 0.742432C25.8089 0.905193 26.1426 1.13306 26.4355 1.42603C26.7285 1.71899 26.9564 2.05265 27.1191 2.427C27.2819 2.80135 27.3633 3.20012 27.3633 3.62329V5.18579ZM11.7383 9.87329H24.2383V3.62329H11.7383V9.87329ZM38.7402 24.1311C39.0983 24.8147 39.375 25.539 39.5703 26.304C39.7656 27.0689 39.8633 27.842 39.8633 28.6233C39.8633 29.2743 39.7982 29.9254 39.668 30.5764C39.5378 31.2275 39.3262 31.8459 39.0332 32.4319C38.7728 33.0504 38.4473 33.62 38.0566 34.1409C37.666 34.6617 37.2266 35.15 36.7383 35.6057V47.3733L30.4883 44.3948L24.2383 47.3733V35.6057C23.6523 35.0849 23.1396 34.4989 22.7002 33.8479C22.2607 33.1969 21.9108 32.497 21.6504 31.7483C21.39 31.0321 21.2272 30.2834 21.1621 29.5022C21.097 28.7209 21.1133 27.9397 21.2109 27.1584C21.3411 26.3772 21.5609 25.6285 21.8701 24.9124C22.1794 24.1962 22.5781 23.5289 23.0664 22.9104C23.5221 22.2919 24.0592 21.7385 24.6777 21.2502C25.2962 20.762 25.9635 20.3551 26.6797 20.0295C27.3958 19.704 28.1364 19.4762 28.9014 19.3459C29.6663 19.2157 30.4395 19.1832 31.2207 19.2483C32.002 19.3134 32.7669 19.4762 33.5156 19.7366C34.2643 19.997 34.9642 20.3388 35.6152 20.762C36.2663 21.1851 36.8522 21.6816 37.373 22.2512C37.8939 22.8209 38.3496 23.4475 38.7402 24.1311ZM30.4883 40.9768L33.6133 42.4417V37.4612C32.6042 37.8193 31.5625 37.9983 30.4883 37.9983C29.4141 37.9983 28.3724 37.8193 27.3633 37.4612V42.4417L30.4883 40.9768ZM27.0215 33.7991C27.5423 34.1571 28.0957 34.4257 28.6816 34.6047C29.2676 34.7838 29.8698 34.8733 30.4883 34.8733C31.3021 34.8733 32.0915 34.7105 32.8564 34.385C33.6214 34.0595 34.2969 33.6038 34.8828 33.0178C35.4688 32.4319 35.9245 31.7564 36.25 30.9915C36.5755 30.2265 36.7383 29.4371 36.7383 28.6233C36.7383 28.0048 36.6488 27.4026 36.4697 26.8167C36.2907 26.2307 36.0221 25.6773 35.6641 25.1565C35.3385 24.6357 34.9398 24.1799 34.4678 23.7893C33.9958 23.3987 33.4668 23.0894 32.8809 22.8616C32.2949 22.6012 31.7008 22.4465 31.0986 22.3977C30.4964 22.3489 29.8861 22.3733 29.2676 22.4709C28.6491 22.6012 28.0713 22.8127 27.5342 23.1057C26.9971 23.3987 26.5007 23.773 26.0449 24.2288C25.6217 24.6519 25.2637 25.1321 24.9707 25.6692C24.6777 26.2063 24.4661 26.7841 24.3359 27.4026C24.2383 28.0211 24.2139 28.6314 24.2627 29.2336C24.3115 29.8359 24.4661 30.4299 24.7266 31.0159C24.9544 31.6018 25.2637 32.1308 25.6543 32.6028C26.0449 33.0748 26.5007 33.4736 27.0215 33.7991Z" fill="url(#paint0_linear_1_244)"/>
<defs>
<linearGradient id="paint0_linear_1_244" x1="0.800782" y1="0.49829" x2="50.7392" y2="26.4244" gradientUnits="userSpaceOnUse">
<stop stop-color="#2600FC"/>
<stop offset="1" stop-color="#FF00EA"/>
</linearGradient>
</defs>
</svg>
