<svg width="45" height="42" viewBox="0 0 45 42" fill="none" xmlns="http://www.w3.org/2000/svg">
<path d="M3.92578 38.1233H10.1758V34.9983H3.92578V3.74829H15.791L22.041 9.99829H41.4258V22.4983H44.5508V9.99829C44.5508 9.57511 44.4694 9.17635 44.3066 8.802C44.1439 8.42765 43.916 8.09399 43.623 7.80103C43.3301 7.50806 42.9964 7.28019 42.6221 7.11743C42.2477 6.95467 41.849 6.87329 41.4258 6.87329H23.3105L17.9883 1.55103C17.8581 1.38826 17.7035 1.24992 17.5244 1.13599C17.3454 1.02205 17.1582 0.932537 16.9629 0.867432C16.7676 0.769775 16.5723 0.70467 16.377 0.672119C16.1816 0.639568 15.9863 0.623291 15.791 0.623291H3.92578C3.5026 0.623291 3.10384 0.70467 2.72949 0.867432C2.35514 1.03019 2.02148 1.25806 1.72852 1.55103C1.43555 1.84399 1.20768 2.17765 1.04492 2.552C0.882161 2.92635 0.800781 3.32512 0.800781 3.74829V34.9983C0.800781 35.4215 0.882161 35.8202 1.04492 36.1946C1.20768 36.5689 1.43555 36.9026 1.72852 37.1956C2.02148 37.4885 2.35514 37.7164 2.72949 37.8792C3.10384 38.0419 3.5026 38.1233 3.92578 38.1233ZM24.2383 27.1858H13.3008V16.2483H24.2383V27.1858ZM16.4258 24.0608H21.1133V19.3733H16.4258V24.0608ZM24.2383 41.2483H13.3008V30.3108H24.2383V41.2483ZM16.4258 38.1233H21.1133V33.4358H16.4258V38.1233ZM27.3633 27.1858H38.3008V16.2483H27.3633V27.1858ZM35.1758 24.0608H30.4883V19.3733H35.1758V24.0608ZM38.3008 41.2483H27.3633V30.3108H38.3008V41.2483ZM30.4883 38.1233H35.1758V33.4358H30.4883V38.1233Z" fill="url(#paint0_linear_1_226)"/>
<defs>
<linearGradient id="paint0_linear_1_226" x1="0.800782" y1="0.62329" x2="49.7661" y2="33.4749" gradientUnits="userSpaceOnUse">
<stop stop-color="#2600FC"/>
<stop offset="1" stop-color="#FF00EA"/>
</linearGradient>
</defs>
</svg>
