<svg width="45" height="45" viewBox="0 0 45 45" fill="none" xmlns="http://www.w3.org/2000/svg">
<path d="M10.0013 4.20914C11.7917 3.00472 13.7285 2.08512 15.8118 1.45036C17.8952 0.81559 20.0111 0.498207 22.1595 0.498207C23.6243 0.498207 25.0566 0.644691 26.4564 0.93766C27.8561 1.19808 29.2152 1.60498 30.5335 2.15836C31.8519 2.71175 33.1133 3.37907 34.3177 4.16032C35.4896 4.97412 36.5964 5.88558 37.638 6.89469C38.6471 7.93636 39.5586 9.04313 40.3724 10.215C41.1536 11.4194 41.821 12.6808 42.3744 13.9992C42.9277 15.3175 43.3346 16.6766 43.5951 18.0763C43.888 19.4761 44.0345 20.9084 44.0345 22.3732C44.0345 24.5216 43.7171 26.6375 43.0824 28.7209C42.4476 30.8042 41.528 32.741 40.3236 34.5314C39.1517 36.3218 37.7275 37.9006 36.0511 39.2677C34.3747 40.6349 32.5273 41.7417 30.5091 42.5881C28.5234 43.4019 26.4564 43.9146 24.3079 44.1261C22.1595 44.3377 20.0273 44.2319 17.9115 43.8088C15.763 43.3856 13.7367 42.6694 11.8324 41.6603C9.92806 40.6512 8.21094 39.3817 6.68099 37.8517C5.15104 36.3218 3.88151 34.6047 2.8724 32.7004C1.86328 30.7961 1.14714 28.7697 0.723958 26.6213C0.300781 24.5054 0.194987 22.3732 0.406576 20.2248C0.618164 18.0763 1.13086 16.0093 1.94466 14.0236C2.79102 12.0054 3.89779 10.158 5.26497 8.48161C6.63216 6.80518 8.21094 5.38102 10.0013 4.20914ZM11.7591 37.9494C13.2891 38.991 14.9411 39.7804 16.7152 40.3175C18.4893 40.8547 20.304 41.1232 22.1595 41.1232C24.6335 41.1232 27.026 40.6512 29.3372 39.7072C31.6484 38.7632 33.6829 37.4123 35.4408 35.6545C37.1986 33.8966 38.5495 31.8621 39.4935 29.5509C40.4375 27.2397 40.9095 24.8472 40.9095 22.3732C40.9095 20.5177 40.641 18.703 40.1038 16.9289C39.5667 15.1548 38.7773 13.5028 37.7357 11.9728C36.7266 10.4103 35.5059 9.04313 34.0736 7.87125C32.6413 6.69938 31.0625 5.75537 29.3372 5.03922C27.612 4.32308 25.8298 3.87549 23.9906 3.69645C22.1514 3.51741 20.3203 3.60693 18.4974 3.965C16.6745 4.32308 14.9492 4.94157 13.3216 5.82047C11.694 6.69938 10.2129 7.78988 8.87826 9.09196C7.57617 10.4266 6.48568 11.9077 5.60677 13.5353C4.72786 15.1629 4.10938 16.8882 3.7513 18.7111C3.39323 20.534 3.30371 22.3651 3.48275 24.2043C3.66178 26.0435 4.10937 27.8257 4.82552 29.5509C5.54167 31.2762 6.48568 32.855 7.65755 34.2873C8.82943 35.7196 10.1966 36.9403 11.7591 37.9494ZM11.222 23.008L19.0345 30.8205L33.097 16.758L30.8997 14.5607L19.0345 26.4259L13.4193 20.8107L11.222 23.008Z" fill="url(#paint0_linear_1_235)"/>
<defs>
<linearGradient id="paint0_linear_1_235" x1="0.300782" y1="0.498206" x2="51.4343" y2="32.3541" gradientUnits="userSpaceOnUse">
<stop stop-color="#2600FC"/>
<stop offset="1" stop-color="#FF00EA"/>
</linearGradient>
</defs>
</svg>
